<?xml version="1.0" encoding="UTF-8" standalone="no"?>
<svg
   xmlns:dc="http://purl.org/dc/elements/1.1/"
   xmlns:cc="http://creativecommons.org/ns#"
   xmlns:rdf="http://www.w3.org/1999/02/22-rdf-syntax-ns#"
   xmlns:svg="http://www.w3.org/2000/svg"
   xmlns="http://www.w3.org/2000/svg"
   xmlns:sodipodi="http://sodipodi.sourceforge.net/DTD/sodipodi-0.dtd"
   xmlns:inkscape="http://www.inkscape.org/namespaces/inkscape"
   height="599pt"
   width="874pt"
   version="1.1"
   viewBox="0 0 874 599"
   id="svg2"
   inkscape:version="0.91 r13725"
   sodipodi:docname="BS_dog1.svg">
  <metadata
     id="metadata10">
    <rdf:RDF>
      <cc:Work
         rdf:about="">
        <dc:format>image/svg+xml</dc:format>
        <dc:type
           rdf:resource="http://purl.org/dc/dcmitype/StillImage" />
        <dc:title />
      </cc:Work>
    </rdf:RDF>
  </metadata>
  <defs
     id="defs8" />
  <sodipodi:namedview
     pagecolor="#ffffff"
     bordercolor="#666666"
     borderopacity="1"
     objecttolerance="10"
     gridtolerance="10"
     guidetolerance="10"
     inkscape:pageopacity="0"
     inkscape:pageshadow="2"
     inkscape:window-width="1920"
     inkscape:window-height="1178"
     id="namedview6"
     showgrid="false"
     inkscape:zoom="1.7037992"
     inkscape:cx="836.99013"
     inkscape:cy="429.7209"
     inkscape:window-x="-8"
     inkscape:window-y="-8"
     inkscape:window-maximized="1"
     inkscape:current-layer="svg2" />
  <g
     id="g5817">
    <g
       transform="matrix(-1,0,0,1,874,0)"
       id="g5321">
      <path
         d="M 565.57719,153.84547 C 508.1364,172.74653 456.9762,165.13483 410.848,165.752 c -21.248,-4.072 -43.112,-5.496 -64.736,-7.44 -30.992,2.4 -60.616,15.416 -85.936,32.96 -43.264,12.888 -86.384,34.16 -132.888,30.496 -41.776,4.416 -79.0384,-20.904 -120.008,-24.624 -2.72032,0.096 -6.81178823,6.35103 -3.9932276,7.87939 21.1481046,11.46751 37.5894216,14.72389 45.9484916,19.10472 35.756,18.24 94.362276,21.89774 133.200736,19.27989 17.256,-0.576 33.952,-4.192 49.76,-10.248 7.496,-3.608 11.848,6.96 10.656,13.048 13.04,50.168 27.76,99.936 40.776,150.112 8.04,32.144 0.416,66.112 -16.584,93.96 -3.44,10.536 5.84,19.008 10,27.68 10.152,23.192 35.936,42.968 28.76,70.848 -3.904,10.848 25.192,6.176 7.872,4.6 4.728,0.088 14.968,-5.904 8.456,0.968 8.664,-1.496 15.904,4.816 24.32,3.504 1.632,-4.76 -11.248,-4.408 -4.656,-10.648 4.92,8.424 4.32,-2.56 -1.864,-4.928 6.104,-1.488 7.76,6.896 11.024,10.536 -3.56,1.16 -2.464,3.672 -0.776,6.16 l 4.392,0 c 6.864,-2.632 0.536,-10.536 -0.368,-15.048 C 349.46,569.312 328.06,573 324.716,557.192 312.532,530 297.588,493.952 320.492,468.48 c 13.944,-17.08 33.4,-29.568 42.752,-50.176 19.368,-24.928 21.928,-58.28 18.352,-88.432 13.65647,-9.35801 18.1311,-3.0599 33.84176,-3.072 49.976,6.01503 80.01928,37.77833 121.97424,43.472 41.95496,5.69367 61.544,2.576 92.368,3.328 9.17985,11.38074 16.95713,94.02507 18.344,125.24 1.104,10.32 4.296,24.952 14.456,28.632 8.824,-6.68 7.952,4.336 1.472,7.76 5.944,10.696 7.64,23.28 14.384,33.424 7.44,7.472 18.544,4.152 25.344,-1.952 1.432,-5.192 -6.128,-7.36 -4.576,-12.464 8.08,-0.52 14.736,6.224 15.648,14 -2.368,-3.496 -4.832,-5.824 -5.936,-0.232 5.176,3.984 13.144,2.184 18.52,-0.856 1.096,-14.624 -12.728,-24.904 -26.536,-24.776 -11.056,-14.528 -17.696,-33.688 -15.048,-52.072 -2.68,-34.784 4.472,-69.312 5.344,-104.08 3.96,-26.072 8.48,-52.936 22.088,-75.912 21.4,-27.152 15.08,-63.768 21.232,-95.688 2.61275,-14.25838 5.2266,-20.9566 12.3757,-33.30224 10.264,-22.1563 13.6761,-37.44136 24.2521,-52.96136 14.072,-13.024 60.39299,5.49736 69.42616,-20.63513 8.72,-6.688 -31.28996,2.30673 -27.44996,-7.32527 8.08,-10.472 27.37366,-1.897565 36.81366,-4.393565 10.03473,-5.493267 12.70292,-0.167118 16.38634,-13.478435 0,0 2.53922,-8.515135 2.85922,-14.344735 0,0 4.82078,-3.998737 4.82078,-12.733665 -1.52,-4.7392 -7.36,-5.04 -11.28,-6.24 C 844.64,46.0896 828,38.3104 810.24,33.92 799.824,32.28 804.8,18.4304 796.88,13.9904 774.09397,2.5854342 759.67006,1.0567077 735.352,0 713.99385,2.8352671 696.488,4.13 683.912,18.9504 666.53307,41.3 646.73463,61.196298 640.03888,86.870487 627.59696,110.58996 610.34807,138.71776 565.57719,153.84547 Z"
         id="path4206"
         inkscape:connector-curvature="0"
         sodipodi:nodetypes="ccccccscccccccccccccccccccccczcccccccccccccccccccccccccccccc" />
      <path
         d="M 225.84964,286.45464 C 222.59076,322.83864 210.632,349.96 198.36,383.424 c -5.12,27.176 -18.432,52.344 -36.472,72.728 -0.024,28.296 1.624,55.736 -7.544,83.256 -3.856,9.032 -3.272,30.512 12.008,22.168 7.248,-9.488 13.52,4.296 21.768,0.88 6.968,-1.264 -1.168,-10.632 7.832,-6.584 -6.36,3.912 1.288,10.016 4.992,4.624 1.048,-13.6 -12.104,-21.744 -15.84,-33.784 -2.208,-20.264 3.536,-41.92 17.264,-57.352 0.36,-14.448 7.872,-28.808 20.12,-36.864 18.52,-15.776 43.93468,-32.72445 57.12668,-53.06045 -11.936,-44.68 -25.10449,-101.00831 -37.29649,-145.64031 -6.64464,17.49993 -5.46563,18.70493 -16.46855,52.6594 z"
         id="path4162"
         inkscape:connector-curvature="0"
         sodipodi:nodetypes="cccccccccccccc" />
      <path
         inkscape:connector-curvature="0"
         d="m 619.392,376.104 c -1.952,0.032 -4.168,0.4 -6.68,1.168 -5.464,0.608 -3.48,7.96 -2.24,11.208 7.248,33.088 17.656,66.656 16.872,100.224 0.16,6.184 7.056,6.024 10.424,9.768 9.904,1.368 -3.088,1.24 -2.208,5.888 0.88,11.672 -0.808,26.832 11.784,32.584 3.648,-0.744 15.504,-0.856 11.68,-6.872 -11.872,-8.152 -11.872,-24.04 -13.168,-36.912 -3.488,-27.472 -4.528,-56.176 -10.328,-82.616 -1.528,-12.632 -0.216,-34.696 -16.136,-34.44 z"
         id="path4150" />
    </g>
  </g>
</svg>
